<svg width="142" height="24" fill="none" xmlns="http://www.w3.org/2000/svg" alt="Infura Logo">
    <path fill-rule="evenodd" clip-rule="evenodd"
        d="m136.325 12.981-2.07-5.721h-.501l-2.067 5.721h4.638Zm4.684 6.836h-2.211l-1.733-4.79h-6.118l-1.73 4.79h-2.211L132.748 4h2.52l5.741 15.817ZM117.229 11.888c1.592 0 3.489-.502 3.489-2.892 0-2.534-2.185-2.912-3.489-2.912h-4.668v5.804h4.668Zm1.762 1.888 3.702 6.028h-2.536l-3.551-5.813h-4.045v5.813h-2.102V4h6.77c3.863 0 5.591 2.51 5.591 4.996 0 3.564-2.832 4.545-3.829 4.78ZM103.076 13.8c0 .17-.046 4.154-4.064 4.154-3.74 0-4.056-3.18-4.064-4.153V4h-2.104v9.8c0 2.86 1.616 6.2 6.168 6.2s6.168-3.34 6.168-6.2V4h-2.104v9.8ZM88.659 4v2.103H78.4v4.14h9.112v2.079H78.4v7.482h-2.103V4h12.362ZM67.684 4v12.56h-.46L59.803 4h-2.721v15.804h2.103V7.64h.459l7.086 12.163h3.058V4h-2.103ZM40 4v1.951h4.67v11.902H40v1.95h11.444v-1.95h-4.67V5.951h4.67V4H40Z"
        fill="#FFFF"></path>
    <path fill-rule="evenodd" clip-rule="evenodd"
        d="M.824 0v3.652l8.725-.899h3.22v5.912l-5.422 1.659L0 12.095l1.09 3.571 7.041-2.706 4.638-1.417v9.704H9.55l-8.725-.9V24h26.643v-3.652l-8.724.9h-3.22v-9.705l4.615 1.41 7.064 2.713 1.09-3.57-7.327-1.767-5.442-1.664V2.753h3.22l8.725.9V0H.824Z"
        fill="#FF5833"></path>
</svg>